<svg aria-hidden="true" style="width:0;height:0;position:absolute;overflow:hidden" xmlns="http://www.w3.org/2000/svg"><defs><symbol id="icon-heart" viewBox="0 0 32 32"><path d="M15.991 6.848C13.325 3.731 8.878 2.892 5.539 5.747c-3.34 2.854-3.811 7.625-1.187 11.001 2.182 2.806 8.781 8.724 10.944 10.64.241.214.364.321.505.364a.677.677 0 0 0 .386-.001l-.005.001c.141-.042.262-.15.503-.364 2.164-1.916 8.764-7.834 10.944-10.64 2.623-3.375 2.211-8.177-1.187-11.001-3.398-2.825-7.786-2.016-10.451 1.101z"/></symbol><symbol id="icon-close-x" viewBox="0 0 32 32"><path d="M7.383 6.293c-.412.201-.939.738-1.118 1.145a1.284 1.284 0 0 0 .007 1.141l-.003-.008c.121.276.508.681 3.692 3.868l3.557 3.559-3.557 3.561c-3.184 3.186-3.572 3.591-3.692 3.867-.279.636-.108 1.234.526 1.844.612.587 1.163.731 1.778.46.276-.121.681-.508 3.867-3.692l3.561-3.557 3.559 3.557c3.188 3.184 3.593 3.572 3.868 3.692.636.279 1.234.108 1.844-.526.587-.612.731-1.163.46-1.778-.121-.276-.508-.681-3.692-3.868l-3.557-3.559 3.557-3.559c3.184-3.188 3.572-3.593 3.692-3.868.27-.615.126-1.166-.46-1.778-.61-.635-1.207-.805-1.844-.526-.276.121-.681.508-3.868 3.692l-3.559 3.557L12.44 9.96C9.254 6.776 8.849 6.388 8.573 6.268a1.27 1.27 0 0 0-1.196.029l.006-.003z"/></symbol><symbol id="icon-hamburger" viewBox="0 0 32 32"><path d="M3.717 7.038c-.456.089-.693.417-.693.962 0 .616.277.924.885.985.182.019 5.755.027 12.384.018 11.943-.016 12.055-.017 12.235-.123.364-.214.528-.637.436-1.126a.866.866 0 0 0-.432-.632l-.004-.002c-.18-.106-.284-.107-12.395-.114-6.717-.004-12.305.01-12.416.032zm0 5.333c-.456.089-.693.418-.693.962 0 .616.277.924.885.986.182.018 5.755.026 12.384.017 11.943-.016 12.055-.017 12.235-.123a.86.86 0 0 0 .435-.628l.001-.005c.092-.49-.072-.912-.436-1.127-.18-.105-.284-.106-12.395-.114-6.717-.004-12.305.01-12.416.032zm0 5.334c-.456.089-.693.417-.693.962 0 .616.277.924.885.985.182.018 5.755.026 12.384.017 11.943-.016 12.055-.017 12.235-.122.364-.215.528-.637.436-1.127a.862.862 0 0 0-.432-.631l-.004-.002c-.18-.106-.284-.107-12.395-.115-6.717-.004-12.305.011-12.416.033zm0 5.333c-.456.089-.693.417-.693.962 0 .616.277.924.885.985.182.019 5.755.027 12.384.018 11.943-.016 12.055-.017 12.235-.123.364-.214.528-.637.436-1.126a.866.866 0 0 0-.432-.632l-.004-.002c-.18-.106-.284-.107-12.395-.114-6.717-.004-12.305.01-12.416.032z"/></symbol><symbol id="icon-cart" viewBox="0 0 32 32"><path d="M.72.26C.323.443.16.753.16 1.333c0 .547.152.864.507 1.059.14.077.467.092 2.587.115l2.427.027.579 2.88 1.739 8.672c1.123 5.611 1.167 5.807 1.377 6.24a3.889 3.889 0 0 0 2.47 2.07l.027.006c.4.103.62.105 7.515.105s7.115-.003 7.515-.105a3.915 3.915 0 0 0 2.766-2.828l.006-.027c.067-.288 1.657-8.601 2.137-11.173.14-.745.016-1.124-.453-1.387l-.237-.133-22.133-.053-.593-2.945c-.325-1.62-.621-3.015-.657-3.1a1.052 1.052 0 0 0-.541-.509L7.191.244C7.02.172 6.584.161 3.964.163 1.14.164.921.171.723.262zm28.469 8.953c.036.063-1.819 9.719-1.917 9.984-.12.323-.444.659-.78.809l-.279.127H12.56l-.279-.127a1.596 1.596 0 0 1-.776-.799l-.004-.01c-.085-.227-2.008-9.735-2.008-9.929 0-.091.471-.095 9.837-.095 5.409 0 9.847.019 9.859.04zM11.303 25.431c-1.145.299-1.979 1.404-1.967 2.607.013 1.276.984 2.391 2.251 2.585a2.563 2.563 0 0 0 2.284-.752c.432-.432.664-.88.752-1.457A2.66 2.66 0 0 0 12 25.341c-.191 0-.504.041-.697.091zm14.666 0c-1.145.299-1.979 1.404-1.967 2.607.013 1.276.984 2.391 2.251 2.585a2.563 2.563 0 0 0 2.284-.752c.432-.432.664-.88.752-1.457a2.66 2.66 0 0 0-2.623-3.073c-.191 0-.504.041-.697.091z"/></symbol><symbol id="icon-search" viewBox="0 0 32 32"><path d="M28.948 27.054 24 22.147a11.926 11.926 0 0 0 2.639-7.508c0-6.627-5.373-12-12-12s-12 5.373-12 12 5.373 12 12 12c2.852 0 5.472-.995 7.531-2.657l-.023.018 4.907 4.907a1.333 1.333 0 0 0 1.894 0 1.33 1.33 0 0 0-.001-1.853zM14.667 24a9.333 9.333 0 1 1 0-18.666 9.333 9.333 0 1 1 0 18.666z"/></symbol><symbol id="icon-arrow" viewBox="0 0 32 32"><path d="M17.867 16.947a1.328 1.328 0 0 0 .001-1.894l-6.12-6.107a1.333 1.333 0 0 1 .94-2.281c.367 0 .699.148.94.388l6.12 6.12c.723.724 1.17 1.723 1.17 2.827s-.447 2.103-1.17 2.827l-6.12 6.12a1.334 1.334 0 1 1-1.88-1.894l6.12-6.107z"/></symbol><symbol id="icon-star" viewBox="0 0 32 32"><path fill="#eea10c" style="fill:var(--color2,#eea10c)" d="M13.826 3.262c.686-2.105 3.664-2.105 4.347 0l1.931 5.943a2.292 2.292 0 0 0 2.174 1.582h6.251c2.215 0 3.134 2.834 1.344 4.135l-5.058 3.673a2.287 2.287 0 0 0-.825 2.572l-.005-.016 1.931 5.945c.686 2.105-1.726 3.858-3.518 2.555l-5.056-3.673c-.372-.273-.839-.437-1.344-.437s-.972.164-1.35.441l.006-.004-5.056 3.673c-1.792 1.303-4.201-.45-3.518-2.555l1.931-5.943a2.282 2.282 0 0 0-.823-2.553l-.006-.004-5.058-3.673c-1.79-1.303-.869-4.137 1.344-4.137h6.251a2.287 2.287 0 0 0 2.167-1.561l.005-.016 1.934-5.943z"/></symbol><symbol id="icon-star-grey" viewBox="0 0 14 13"><path d="M6.049.927c.3-.921 1.603-.921 1.902 0l.845 2.6a1 1 0 0 0 .951.692h2.735c.969 0 1.371 1.24.588 1.809l-2.213 1.607a1 1 0 0 0-.363 1.118l.845 2.601c.3.921-.755 1.688-1.539 1.118l-2.212-1.607a1 1 0 0 0-1.176 0L4.2 12.472c-.784.57-1.838-.197-1.539-1.118l.845-2.6a1 1 0 0 0-.363-1.119L.93 6.028c-.783-.57-.38-1.81.588-1.81h2.735a1 1 0 0 0 .95-.69l.846-2.6Z"/></symbol><symbol id="icon-elements" viewBox="0 0 37 32"><path fill="#9bb537" style="fill:var(--color1,#9bb537)" d="M7.325 12.723h23.133v17.735H7.325V12.723z"/><path fill="#9bb537" style="fill:var(--color1,#9bb537)" d="M16.578 11.373a8.289 8.289 0 1 1-16.578 0 8.289 8.289 0 1 1 16.578 0z"/><path fill="#9bb537" style="fill:var(--color1,#9bb537)" d="M26.988 8.289a8.289 8.289 0 1 1-16.578 0 8.289 8.289 0 1 1 16.578 0z"/><path fill="#9bb537" style="fill:var(--color1,#9bb537)" d="M37.398 11.373a8.289 8.289 0 1 1-16.578 0 8.289 8.289 0 1 1 16.578 0z"/><path fill="#f8f8f8" style="fill:var(--color2,#f8f8f8)" d="M7.325 29.301h23.133v2.036c0 .366-.324.663-.723.663H8.048c-.399 0-.723-.297-.723-.663v-2.036zM14.265 10.36c0-.611.432-1.107.964-1.107s.964.495.964 1.107v5.112c0 .611-.432 1.107-.964 1.107s-.964-.495-.964-1.107V10.36zM17.349 10.36c0-.611.604-1.107 1.349-1.107s1.349.495 1.349 1.107v5.112c0 .611-.604 1.107-1.349 1.107s-1.349-.495-1.349-1.107V10.36zM21.205 10.36c0-.611.432-1.107.964-1.107s.964.495.964 1.107v5.112c0 .611-.432 1.107-.964 1.107s-.964-.495-.964-1.107V10.36z"/><path fill="#050505" style="fill:var(--color3,#050505)" d="M28.184 3.131c.289-.03.581-.045.878-.045A8.333 8.333 0 0 1 37 8.832c-.289.03-.581.045-.878.045a8.333 8.333 0 0 1-7.938-5.746z"/></symbol><symbol id="scroll-to-top_icon" viewBox="0 0 33 32"><path d="M28.889 17.666c.432.411.992.613 1.552.605s1.114-.223 1.536-.647l.032-.032a2.108 2.108 0 0 0-.045-2.96C27.282 9.948 22.521 5.314 17.802.659a.411.411 0 0 0-.042-.05c-.432-.414-.997-.615-1.557-.607s-1.117.225-1.538.65l-.069.072C9.941 5.363 5.272 9.989.628 14.636c-.408.409-.618.936-.626 1.47s.186 1.069.586 1.488l.04.04c.419.416.971.631 1.528.639s1.119-.194 1.552-.605L16.246 5.143l12.645 12.525zm-.531 13.732c.43.409.989.607 1.546.599a2.2 2.2 0 0 0 1.536-.647l.032-.032a2.11 2.11 0 0 0-.043-2.96c-4.586-4.584-9.096-9.324-13.626-13.971-.013-.019-.029-.037-.045-.056-.432-.411-.997-.613-1.557-.605s-1.117.225-1.538.65c-4.496 4.642-8.976 9.302-13.467 13.952l-.034.032a2.11 2.11 0 0 0-.037 2.958l.04.04c.419.416.971.631 1.528.639s1.119-.194 1.552-.605l12-12.515 12.114 12.52z"/></symbol><symbol id="icon-moon" viewBox="0 0 20 20"><path d="M13.719 1.8A8.759 8.759 0 1 1 1.8 13.719c3.335 1.867 7.633 1.387 10.469-1.449s3.318-7.134 1.45-10.47z"/></symbol><symbol id="icon-sun" viewBox="0 0 32 32"><path d="M16 26a2 2 0 0 1 2 2v2a2 2 0 1 1-4 0v-2a2 2 0 0 1 2-2zm0-20a2 2 0 0 1-2-2V2a2 2 0 1 1 4 0v2a2 2 0 0 1-2 2zm14 8a2 2 0 1 1 0 4h-2a2 2 0 1 1 0-4h2zM6 16a2 2 0 0 1-2 2H2a2 2 0 1 1 0-4h2a2 2 0 0 1 2 2zm19.899 7.071 1.414 1.414a2 2 0 1 1-2.828 2.828l-1.414-1.414a2 2 0 1 1 2.828-2.828zM6.101 8.929 4.687 7.515a2 2 0 1 1 2.828-2.828l1.414 1.414a2 2 0 1 1-2.828 2.828zm19.798 0a2 2 0 1 1-2.828-2.828l1.414-1.414a2 2 0 1 1 2.828 2.828l-1.414 1.414zM6.101 23.071a2 2 0 1 1 2.828 2.828l-1.414 1.414a2 2 0 1 1-2.828-2.828l1.414-1.414zM16 8a8 8 0 1 0 0 16 8 8 0 0 0 0-16zm0 13a5 5 0 1 1 .001-10.001A5 5 0 0 1 16 21z"/></symbol><symbol id="icon-plus" viewBox="0 0 32 32"><path d="M14 14v-4a2 2 0 1 1 4 0v4h4a2 2 0 1 1 0 4h-4v4a2 2 0 1 1-4 0v-4h-4a2 2 0 1 1 0-4h4zm2 18C7.163 32 0 24.837 0 16S7.163 0 16 0s16 7.163 16 16-7.163 16-16 16zm0-4c6.627 0 12-5.373 12-12S22.627 4 16 4 4 9.373 4 16s5.373 12 12 12z"/></symbol><symbol id="icon-plus" viewBox="0 0 28 32"><path d="M16 5c0-1.106-.894-2-2-2s-2 .894-2 2v9H3c-1.106 0-2 .894-2 2s.894 2 2 2h9v9c0 1.106.894 2 2 2s2-.894 2-2v-9h9c1.106 0 2-.894 2-2s-.894-2-2-2h-9V5z"/></symbol><symbol id="icon-minus" viewBox="0 0 28 32"><path d="M27 16c0 1.106-.894 2-2 2H3c-1.106 0-2-.894-2-2s.894-2 2-2h22c1.106 0 2 .894 2 2z"/></symbol><symbol id="play-icon" viewBox="0 0 38 27"><path fill-rule="evenodd" clip-rule="evenodd" d="M19 .333v2h-.12a142.271 142.271 0 0 0-1.614.012c-1.06.011-2.5.034-4.023.079a109.13 109.13 0 0 0-4.51.214c-1.407.103-2.505.234-3.084.388a3.402 3.402 0 0 0-2.36 2.415 44.917 44.917 0 0 0-.706 8.158v.011c-.017 2.75.218 5.497.703 8.204a3.401 3.401 0 0 0 2.358 2.304c.578.154 1.679.286 3.089.39 1.383.1 2.984.168 4.51.213a215.585 215.585 0 0 0 5.636.09H19l.001 1v1h-.125a157.09 157.09 0 0 1-1.63-.01 218.502 218.502 0 0 1-4.062-.08 111.047 111.047 0 0 1-4.596-.22C7.19 26.4 5.91 26.26 5.125 26.05l-.006-.001a5.402 5.402 0 0 1-3.77-3.73 1.003 1.003 0 0 1-.021-.097 46.916 46.916 0 0 1-.745-8.617 46.917 46.917 0 0 1 .759-8.618 5.402 5.402 0 0 1 3.77-3.887l.013-.003C5.909.886 7.19.746 8.587.643 10.012.54 11.645.471 13.183.425a218.097 218.097 0 0 1 5.692-.091H19ZM32.35 24.12c-.579.154-1.677.285-3.084.388-1.383.101-2.984.169-4.51.214a215.585 215.585 0 0 1-5.636.09H19v2h.125a157.237 157.237 0 0 0 1.63-.01c1.068-.012 2.522-.035 4.062-.08 1.538-.047 3.171-.115 4.596-.22 1.396-.101 2.677-.242 3.462-.452l.014-.003a5.402 5.402 0 0 0 3.783-3.952c.506-2.8.755-5.642.745-8.488a46.907 46.907 0 0 0-.759-8.684 5.401 5.401 0 0 0-3.804-3.895c-.777-.19-2.05-.318-3.447-.41a121.478 121.478 0 0 0-4.593-.2 238.766 238.766 0 0 0-5.689-.083H19v2h.12a164.742 164.742 0 0 1 1.615.01c1.06.01 2.5.03 4.025.072 1.526.042 3.128.103 4.514.196 1.397.093 2.498.213 3.088.354a3.401 3.401 0 0 1 2.349 2.411c.487 2.713.723 5.465.706 8.22v.01a44.911 44.911 0 0 1-.707 8.097 3.401 3.401 0 0 1-2.359 2.415Z"/><path fill-rule="evenodd" clip-rule="evenodd" d="M14.935 7.562a1 1 0 0 1 .997-.005l9.104 5.178a1 1 0 0 1 0 1.738l-9.104 5.178a1 1 0 0 1-1.495-.87V8.428a1 1 0 0 1 .498-.865Zm1.502 2.584v6.916l6.082-3.458-6.081-3.458Z"/></symbol></defs></svg>