<svg aria-hidden="true" style="position: absolute; width: 0; height: 0; overflow: hidden;" version="1.1" xmlns="http://www.w3.org/2000/svg" xmlns:xlink="http://www.w3.org/1999/xlink">
<defs>
<!-- HEART ICON -->
<symbol id="icon-heart" viewBox="0 0 32 32">
<path  d="M15.991 6.848c-2.666-3.117-7.113-3.956-10.452-1.101-3.34 2.854-3.811 7.625-1.187 11.001 2.182 2.806 8.781 8.724 10.944 10.64 0.241 0.214 0.364 0.321 0.505 0.364 0.057 0.017 0.123 0.028 0.191 0.028s0.134-0.010 0.195-0.029l-0.005 0.001c0.141-0.042 0.262-0.15 0.503-0.364 2.164-1.916 8.764-7.834 10.944-10.64 2.623-3.375 2.211-8.177-1.187-11.001-3.398-2.825-7.786-2.016-10.451 1.101z"></path>
</symbol>
<!-- CLOSE ICON -->
<symbol id="icon-close-x" viewBox="0 0 32 32">
<path d="M7.383 6.293c-0.412 0.201-0.939 0.738-1.118 1.145-0.081 0.165-0.129 0.359-0.129 0.563 0 0.208 0.049 0.404 0.136 0.578l-0.003-0.008c0.121 0.276 0.508 0.681 3.692 3.868l3.557 3.559-3.557 3.561c-3.184 3.186-3.572 3.591-3.692 3.867-0.279 0.636-0.108 1.234 0.526 1.844 0.612 0.587 1.163 0.731 1.778 0.46 0.276-0.121 0.681-0.508 3.867-3.692l3.561-3.557 3.559 3.557c3.188 3.184 3.593 3.572 3.868 3.692 0.636 0.279 1.234 0.108 1.844-0.526 0.587-0.612 0.731-1.163 0.46-1.778-0.121-0.276-0.508-0.681-3.692-3.868l-3.557-3.559 3.557-3.559c3.184-3.188 3.572-3.593 3.692-3.868 0.27-0.615 0.126-1.166-0.46-1.778-0.61-0.635-1.207-0.805-1.844-0.526-0.276 0.121-0.681 0.508-3.868 3.692l-3.559 3.557-3.561-3.557c-3.186-3.184-3.591-3.572-3.867-3.692-0.166-0.085-0.363-0.134-0.571-0.134-0.227 0-0.44 0.059-0.625 0.163l0.006-0.003z"></path>
</symbol>
<!-- HAMBURGER ICON -->
<symbol id="icon-hamburger" viewBox="0 0 32 32">
<path d="M3.717 7.038c-0.456 0.089-0.693 0.417-0.693 0.962 0 0.616 0.277 0.924 0.885 0.985 0.182 0.019 5.755 0.027 12.384 0.018 11.943-0.016 12.055-0.017 12.235-0.123 0.364-0.214 0.528-0.637 0.436-1.126-0.040-0.274-0.203-0.503-0.432-0.632l-0.004-0.002c-0.18-0.106-0.284-0.107-12.395-0.114-6.717-0.004-12.305 0.010-12.416 0.032zM3.717 12.371c-0.456 0.089-0.693 0.418-0.693 0.962 0 0.616 0.277 0.924 0.885 0.986 0.182 0.018 5.755 0.026 12.384 0.017 11.943-0.016 12.055-0.017 12.235-0.123 0.233-0.13 0.396-0.359 0.435-0.628l0.001-0.005c0.092-0.49-0.072-0.912-0.436-1.127-0.18-0.105-0.284-0.106-12.395-0.114-6.717-0.004-12.305 0.010-12.416 0.032zM3.717 17.705c-0.456 0.089-0.693 0.417-0.693 0.962 0 0.616 0.277 0.924 0.885 0.985 0.182 0.018 5.755 0.026 12.384 0.017 11.943-0.016 12.055-0.017 12.235-0.122 0.364-0.215 0.528-0.637 0.436-1.127-0.040-0.274-0.203-0.503-0.432-0.631l-0.004-0.002c-0.18-0.106-0.284-0.107-12.395-0.115-6.717-0.004-12.305 0.011-12.416 0.033zM3.717 23.038c-0.456 0.089-0.693 0.417-0.693 0.962 0 0.616 0.277 0.924 0.885 0.985 0.182 0.019 5.755 0.027 12.384 0.018 11.943-0.016 12.055-0.017 12.235-0.123 0.364-0.214 0.528-0.637 0.436-1.126-0.040-0.274-0.203-0.503-0.432-0.632l-0.004-0.002c-0.18-0.106-0.284-0.107-12.395-0.114-6.717-0.004-12.305 0.010-12.416 0.032z"></path>
</symbol>
<!-- CART ICON -->
<symbol id="icon-cart" viewBox="0 0 32 32">
<path d="M0.72 0.26c-0.397 0.183-0.56 0.493-0.56 1.073 0 0.547 0.152 0.864 0.507 1.059 0.14 0.077 0.467 0.092 2.587 0.115l2.427 0.027 0.579 2.88 1.739 8.672c1.123 5.611 1.167 5.807 1.377 6.24 0.492 1.017 1.386 1.773 2.47 2.070l0.027 0.006c0.4 0.103 0.62 0.105 7.515 0.105s7.115-0.003 7.515-0.105c1.376-0.382 2.43-1.464 2.766-2.828l0.006-0.027c0.067-0.288 1.657-8.601 2.137-11.173 0.14-0.745 0.016-1.124-0.453-1.387l-0.237-0.133-22.133-0.053-0.593-2.945c-0.325-1.62-0.621-3.015-0.657-3.1-0.115-0.232-0.306-0.412-0.541-0.509l-0.007-0.003c-0.171-0.072-0.607-0.083-3.227-0.081-2.824 0.001-3.043 0.008-3.241 0.099zM29.189 9.213c0.036 0.063-1.819 9.719-1.917 9.984-0.12 0.323-0.444 0.659-0.78 0.809l-0.279 0.127h-13.653l-0.279-0.127c-0.351-0.169-0.624-0.451-0.776-0.799l-0.004-0.010c-0.085-0.227-2.008-9.735-2.008-9.929 0-0.091 0.471-0.095 9.837-0.095 5.409 0 9.847 0.019 9.859 0.040zM11.303 25.431c-1.145 0.299-1.979 1.404-1.967 2.607 0.013 1.276 0.984 2.391 2.251 2.585 0.871 0.133 1.659-0.125 2.284-0.752 0.432-0.432 0.664-0.88 0.752-1.457 0.021-0.124 0.032-0.267 0.032-0.413 0-1.467-1.188-2.657-2.655-2.66h-0c-0.191 0-0.504 0.041-0.697 0.091zM25.969 25.431c-1.145 0.299-1.979 1.404-1.967 2.607 0.013 1.276 0.984 2.391 2.251 2.585 0.871 0.133 1.659-0.125 2.284-0.752 0.432-0.432 0.664-0.88 0.752-1.457 0.021-0.124 0.032-0.267 0.032-0.413 0-1.467-1.188-2.657-2.655-2.66h-0c-0.191 0-0.504 0.041-0.697 0.091z"></path>
</symbol>
  <!-- SEARCH ICON-->
<symbol id="icon-search" viewBox="0 0 32 32">
<path d="M28.948 27.054l-4.948-4.907c1.644-2.036 2.639-4.656 2.639-7.508 0-6.627-5.373-12-12-12s-12 5.373-12 12c0 6.627 5.373 12 12 12 2.852 0 5.472-0.995 7.531-2.657l-0.023 0.018 4.907 4.907c0.242 0.244 0.577 0.394 0.947 0.394s0.705-0.151 0.947-0.394l0-0c0.232-0.24 0.374-0.566 0.374-0.926s-0.143-0.687-0.375-0.927l0 0zM14.667 24c-5.155 0-9.333-4.179-9.333-9.333s4.179-9.333 9.333-9.333v0c5.155 0 9.333 4.179 9.333 9.333s-4.179 9.333-9.333 9.333v0z"></path>
</symbol>
<!-- ARROW -->
<symbol id="icon-arrow" viewBox="0 0 32 32">
<path d="M17.867 16.947c0.244-0.241 0.396-0.576 0.396-0.947s-0.151-0.705-0.395-0.947l-0-0-6.12-6.107c-0.243-0.242-0.394-0.577-0.394-0.947 0-0.737 0.597-1.334 1.334-1.334 0.367 0 0.699 0.148 0.94 0.388l6.12 6.12c0.723 0.724 1.17 1.723 1.17 2.827s-0.447 2.103-1.17 2.827l-6.12 6.12c-0.241 0.239-0.573 0.387-0.94 0.387-0.737 0-1.334-0.597-1.334-1.334 0-0.37 0.151-0.705 0.394-0.947l0-0 6.12-6.107z"></path>
</symbol>
 <!-- STAR ICON YELLOW -->
<symbol id="icon-star" viewBox="0 0 32 32">
<path fill="#eea10c" style="fill: var(--color2, #eea10c)" d="M13.826 3.262c0.686-2.105 3.664-2.105 4.347 0l1.931 5.943c0.306 0.925 1.163 1.581 2.174 1.582h6.251c2.215 0 3.134 2.834 1.344 4.135l-5.058 3.673c-0.573 0.42-0.942 1.092-0.942 1.849 0 0.253 0.041 0.496 0.117 0.723l-0.005-0.016 1.931 5.945c0.686 2.105-1.726 3.858-3.518 2.555l-5.056-3.673c-0.372-0.273-0.839-0.437-1.344-0.437s-0.972 0.164-1.35 0.441l0.006-0.004-5.056 3.673c-1.792 1.303-4.201-0.45-3.518-2.555l1.931-5.943c0.071-0.212 0.113-0.455 0.113-0.708 0-0.757-0.368-1.429-0.936-1.845l-0.006-0.004-5.058-3.673c-1.79-1.303-0.869-4.137 1.344-4.137h6.251c1.008-0.001 1.864-0.654 2.167-1.561l0.005-0.016 1.934-5.943z"></path>
</symbol>
 <!-- STAR ICON GRAY -->
<symbol id="icon-star-grey" viewBox="0 0 14 13">
    <path d="M6.049.927c.3-.921 1.603-.921 1.902 0l.845 2.6a1 1 0 0 0 .951.692h2.735c.969 0 1.371 1.24.588 1.809l-2.213 1.607a1 1 0 0 0-.363 1.118l.845 2.601c.3.921-.755 1.688-1.539 1.118l-2.212-1.607a1 1 0 0 0-1.176 0L4.2 12.472c-.784.57-1.838-.197-1.539-1.118l.845-2.6a1 1 0 0 0-.363-1.119L.93 6.028c-.783-.57-.38-1.81.588-1.81h2.735a1 1 0 0 0 .95-.69l.846-2.6Z"/></path>
</symbol>
 <!-- COOK LOGO -->
<symbol id="icon-elements" viewBox="0 0 37 32">
        <path fill="#9bb537" style="fill: var(--color1, #9bb537)" d="M7.325 12.723h23.133v17.735h-23.133v-17.735z"></path>
        <path fill="#9bb537" style="fill: var(--color1, #9bb537)" d="M16.578 11.373c0 4.578-3.711 8.289-8.289 8.289s-8.289-3.711-8.289-8.289c0-4.578 3.711-8.289 8.289-8.289s8.289 3.711 8.289 8.289z"></path>
        <path fill="#9bb537" style="fill: var(--color1, #9bb537)" d="M26.988 8.289c0 4.578-3.711 8.289-8.289 8.289s-8.289-3.711-8.289-8.289c0-4.578 3.711-8.289 8.289-8.289s8.289 3.711 8.289 8.289z"></path>
        <path fill="#9bb537" style="fill: var(--color1, #9bb537)" d="M37.398 11.373c0 4.578-3.711 8.289-8.289 8.289s-8.289-3.711-8.289-8.289c0-4.578 3.711-8.289 8.289-8.289s8.289 3.711 8.289 8.289z"></path>
        <path fill="#f8f8f8" style="fill: var(--color2, #f8f8f8)" d="M7.325 29.301h23.133v2.036c0 0.366-0.324 0.663-0.723 0.663h-21.687c-0.399 0-0.723-0.297-0.723-0.663v-2.036z"></path>
        <path fill="#f8f8f8" style="fill: var(--color2, #f8f8f8)" d="M14.265 10.36c0-0.611 0.432-1.107 0.964-1.107v0c0.532 0 0.964 0.495 0.964 1.107v5.112c0 0.611-0.432 1.107-0.964 1.107v0c-0.532 0-0.964-0.495-0.964-1.107v-5.112z"></path>
        <path fill="#f8f8f8" style="fill: var(--color2, #f8f8f8)" d="M17.349 10.36c0-0.611 0.604-1.107 1.349-1.107v0c0.745 0 1.349 0.495 1.349 1.107v5.112c0 0.611-0.604 1.107-1.349 1.107v0c-0.745 0-1.349-0.495-1.349-1.107v-5.112z"></path>
        <path fill="#f8f8f8" style="fill: var(--color2, #f8f8f8)" d="M21.205 10.36c0-0.611 0.432-1.107 0.964-1.107v0c0.532 0 0.964 0.495 0.964 1.107v5.112c0 0.611-0.432 1.107-0.964 1.107v0c-0.532 0-0.964-0.495-0.964-1.107v-5.112z"></path>
        <path fill="#050505" style="fill: var(--color3, #050505)" d="M28.184 3.131c0.289-0.030 0.581-0.045 0.878-0.045 3.714 0 6.861 2.413 7.938 5.746-0.289 0.030-0.581 0.045-0.878 0.045-3.714 0-6.861-2.413-7.938-5.746z"></path>
</symbol>
 <!-- TO UP BUTTON -->
<symbol id="scroll-to-top_icon" viewBox="0 0 33 32">
      <path d="M28.889 17.666c0.432 0.411 0.992 0.613 1.552 0.605s1.114-0.223 1.536-0.647l0.032-0.032c0.398-0.419 0.592-0.955 0.584-1.488s-0.218-1.064-0.629-1.472c-4.682-4.684-9.443-9.318-14.162-13.973-0.013-0.019-0.027-0.034-0.042-0.050-0.432-0.414-0.997-0.615-1.557-0.607s-1.117 0.225-1.538 0.65l-0.069 0.072c-4.655 4.639-9.324 9.265-13.968 13.912-0.408 0.409-0.618 0.936-0.626 1.47s0.186 1.069 0.586 1.488l0.040 0.040c0.419 0.416 0.971 0.631 1.528 0.639s1.119-0.194 1.552-0.605l12.538-12.525 12.645 12.525zM28.358 31.398c0.43 0.409 0.989 0.607 1.546 0.599 0.56-0.008 1.114-0.223 1.536-0.647l0.032-0.032c0.398-0.416 0.592-0.955 0.586-1.488-0.008-0.533-0.218-1.066-0.629-1.472-4.586-4.584-9.096-9.324-13.626-13.971-0.013-0.019-0.029-0.037-0.045-0.056-0.432-0.411-0.997-0.613-1.557-0.605s-1.117 0.225-1.538 0.65c-4.496 4.642-8.976 9.302-13.467 13.952l-0.034 0.032c-0.408 0.406-0.615 0.936-0.623 1.47s0.186 1.069 0.586 1.488l0.040 0.040c0.419 0.416 0.971 0.631 1.528 0.639s1.119-0.194 1.552-0.605l12-12.515 12.114 12.52z"></path>
</symbol>
<!-- Moon -->
<symbol id="icon-moon" viewBox="0 0 20 20">
<path d="M13.719 1.8c0.686 0.385 1.332 0.867 1.916 1.449 3.42 3.422 3.42 8.966 0 12.386s-8.965 3.42-12.386 0c-0.583-0.584-1.065-1.231-1.449-1.916 3.335 1.867 7.633 1.387 10.469-1.449s3.318-7.134 1.45-10.47z"></path>
</symbol>

<symbol id="icon-sun" viewBox="0 0 32 32">
<path d="M16 26c1.105 0 2 0.895 2 2v2c0 1.105-0.895 2-2 2s-2-0.895-2-2v-2c0-1.105 0.895-2 2-2zM16 6c-1.105 0-2-0.895-2-2v-2c0-1.105 0.895-2 2-2s2 0.895 2 2v2c0 1.105-0.895 2-2 2zM30 14c1.105 0 2 0.895 2 2s-0.895 2-2 2h-2c-1.105 0-2-0.895-2-2s0.895-2 2-2h2zM6 16c0 1.105-0.895 2-2 2h-2c-1.105 0-2-0.895-2-2s0.895-2 2-2h2c1.105 0 2 0.895 2 2zM25.899 23.071l1.414 1.414c0.781 0.781 0.781 2.047 0 2.828s-2.047 0.781-2.828 0l-1.414-1.414c-0.781-0.781-0.781-2.047 0-2.828s2.047-0.781 2.828 0zM6.101 8.929l-1.414-1.414c-0.781-0.781-0.781-2.047 0-2.828s2.047-0.781 2.828 0l1.414 1.414c0.781 0.781 0.781 2.047 0 2.828s-2.047 0.781-2.828 0zM25.899 8.929c-0.781 0.781-2.047 0.781-2.828 0s-0.781-2.047 0-2.828l1.414-1.414c0.781-0.781 2.047-0.781 2.828 0s0.781 2.047 0 2.828l-1.414 1.414zM6.101 23.071c0.781-0.781 2.047-0.781 2.828 0s0.781 2.047 0 2.828l-1.414 1.414c-0.781 0.781-2.047 0.781-2.828 0s-0.781-2.047 0-2.828l1.414-1.414z"></path>
<path d="M16 8c-4.418 0-8 3.582-8 8s3.582 8 8 8c4.418 0 8-3.582 8-8s-3.582-8-8-8zM16 21c-2.761 0-5-2.239-5-5s2.239-5 5-5 5 2.239 5 5-2.239 5-5 5z"></path>
</symbol>

<symbol id="icon-plus" viewBox="0 0 32 32">
<path  d="M14 14v-4c0-1.105 0.895-2 2-2s2 0.895 2 2v4h4c1.105 0 2 0.895 2 2s-0.895 2-2 2h-4v4c0 1.105-0.895 2-2 2s-2-0.895-2-2v-4h-4c-1.105 0-2-0.895-2-2s0.895-2 2-2h4zM16 32c-8.837 0-16-7.163-16-16s7.163-16 16-16c8.837 0 16 7.163 16 16s-7.163 16-16 16zM16 28c6.627 0 12-5.373 12-12s-5.373-12-12-12c-6.627 0-12 5.373-12 12s5.373 12 12 12z"></path>
</symbol>

<symbol id="icon-plus" viewBox="0 0 28 32">
<path d="M16 5c0-1.106-0.894-2-2-2s-2 0.894-2 2v9h-9c-1.106 0-2 0.894-2 2s0.894 2 2 2h9v9c0 1.106 0.894 2 2 2s2-0.894 2-2v-9h9c1.106 0 2-0.894 2-2s-0.894-2-2-2h-9v-9z"></path>
</symbol>
<symbol id="icon-minus" viewBox="0 0 28 32">
<path d="M27 16c0 1.106-0.894 2-2 2h-22c-1.106 0-2-0.894-2-2s0.894-2 2-2h22c1.106 0 2 0.894 2 2z"></path>
</symbol>

<!-- Play -->
<symbol id="play-icon" viewBox="0 0 38 27">
<path fill-rule="evenodd" clip-rule="evenodd" d="M18.9998 0.333374C18.9999 0.333374 19 0.333374 19 1.33337L18.9999 2.33337L18.8792 2.33355C18.7995 2.33373 18.682 2.33408 18.5313 2.33479C18.2298 2.3362 17.7957 2.33903 17.266 2.3447C16.2063 2.35603 14.7662 2.3787 13.2426 2.42397C11.7173 2.4693 10.1164 2.53706 8.73256 2.63799C7.32642 2.74055 6.22768 2.87233 5.64862 3.0259C5.07533 3.18941 4.55503 3.50072 4.13989 3.92869C3.7304 4.35085 3.43748 4.87184 3.28949 5.44069C2.80616 8.13302 2.56977 10.8639 2.58329 13.5993L2.58335 13.6105C2.56608 16.3609 2.8014 19.107 3.28647 21.8142C3.44981 22.3593 3.74735 22.8549 4.15213 23.2555C4.56728 23.6664 5.08121 23.9634 5.64442 24.1181C6.22236 24.2721 7.32301 24.4043 8.73256 24.5071C10.1164 24.608 11.7173 24.6758 13.2426 24.7211C14.7662 24.7664 16.2063 24.7891 17.266 24.8004C17.7957 24.8061 18.2298 24.8089 18.5313 24.8103C18.682 24.811 18.7995 24.8114 18.8792 24.8115L18.9996 24.8117L19 25.8117C19 26.8117 18.9999 26.8117 18.9998 26.8117L18.8748 26.8115C18.7935 26.8113 18.6743 26.811 18.5219 26.8103C18.217 26.8088 17.7788 26.806 17.2446 26.8003C16.1767 26.7888 14.7233 26.766 13.1832 26.7202C11.6447 26.6745 10.0117 26.6057 8.58707 26.5018C7.19042 26.3999 5.90942 26.2592 5.12494 26.0494L5.11938 26.0479C4.22329 25.8027 3.40558 25.3306 2.74526 24.6771C2.08494 24.0236 1.60434 23.2108 1.34988 22.3173C1.34084 22.2855 1.33338 22.2534 1.32752 22.2209C0.814626 19.3775 0.565492 16.4928 0.583287 13.6035C0.569461 10.7359 0.818577 7.87305 1.32751 5.0509C1.33146 5.02897 1.33615 5.00718 1.34156 4.98557C1.57237 4.06342 2.04245 3.21851 2.70431 2.53618C3.36617 1.85385 4.19637 1.35826 5.11107 1.09948L5.12494 1.09566C5.90942 0.885856 7.19042 0.745159 8.58707 0.643289C10.0117 0.53938 11.6447 0.470575 13.1832 0.424857C14.7233 0.379092 16.1767 0.356236 17.2446 0.344811C17.7788 0.339097 18.217 0.336238 18.5219 0.334808C18.6743 0.334092 18.7935 0.333734 18.8748 0.333554L18.9998 0.333374ZM32.3513 24.1192C31.7723 24.2728 30.6735 24.4045 29.2674 24.5071C27.8835 24.608 26.2826 24.6758 24.7573 24.7211C23.2337 24.7664 21.7936 24.7891 20.7339 24.8004C20.2043 24.8061 19.7701 24.8089 19.4687 24.8103C19.3179 24.811 19.2004 24.8114 19.1208 24.8115L18.9996 24.8117L19 25.8117C19 26.8117 18.9999 26.8117 18.9998 26.8117L19.1252 26.8115C19.2064 26.8113 19.3256 26.811 19.478 26.8103C19.783 26.8088 20.2211 26.806 20.7553 26.8003C21.8232 26.7888 23.2766 26.766 24.8168 26.7202C26.3553 26.6745 27.9883 26.6057 29.4129 26.5018C30.8095 26.3999 32.0905 26.2592 32.875 26.0494L32.8889 26.0456C33.8036 25.7868 34.6338 25.2912 35.2956 24.6089C35.9575 23.9266 36.4276 23.0817 36.6584 22.1595C36.6638 22.1379 36.6685 22.1161 36.6724 22.0942C37.1775 19.2931 37.4266 16.4519 37.4166 13.6057C37.4345 10.7162 37.1854 7.83122 36.6724 4.98753C36.6685 4.96561 36.6638 4.94384 36.6584 4.92223C36.4276 4.00008 35.9575 3.15517 35.2956 2.47284C34.6338 1.79051 33.8036 1.29493 32.8889 1.03614C32.8772 1.03286 32.8656 1.02978 32.8538 1.02692C32.0773 0.837292 30.8036 0.709165 29.4066 0.616131C27.9837 0.521374 26.3521 0.458594 24.8142 0.416867C23.2748 0.375101 21.8219 0.35424 20.7544 0.343812C20.2204 0.338597 19.7824 0.335988 19.4776 0.334682C19.3252 0.334029 19.2061 0.333702 19.125 0.333538L18.9998 0.333374C18.9999 0.333374 19 0.333374 19 1.33337L18.9999 2.33337L19.1209 2.33353C19.2007 2.3337 19.3183 2.33402 19.4691 2.33466C19.7707 2.33596 20.205 2.33854 20.7348 2.34372C21.7949 2.35407 23.2356 2.37477 24.7599 2.41613C26.2858 2.45753 27.8881 2.51944 29.2737 2.61171C30.671 2.70477 31.7721 2.82453 32.3617 2.96555C32.9309 3.12984 33.4474 3.43997 33.86 3.86536C34.2695 4.28753 34.5625 4.80853 34.7105 5.3774C35.1976 8.09007 35.434 10.8419 35.4166 13.5979L35.4166 13.6078C35.4264 16.3225 35.19 19.0324 34.7104 21.7044C34.5625 22.2732 34.2695 22.7942 33.86 23.2164C33.4449 23.6444 32.9246 23.9557 32.3513 24.1192Z"/>
<path fill-rule="evenodd" clip-rule="evenodd" d="M14.9347 7.56224C15.2425 7.38319 15.6223 7.38133 15.9318 7.55737L25.036 12.7349C25.3486 12.9126 25.5417 13.2445 25.5417 13.6041C25.5417 13.9637 25.3486 14.2956 25.036 14.4734L15.9318 19.6509C15.6223 19.8269 15.2425 19.8251 14.9347 19.646C14.6269 19.467 14.4375 19.1377 14.4375 18.7816V8.42664C14.4375 8.07053 14.6269 7.7413 14.9347 7.56224ZM16.4375 10.1457V17.0625L22.5188 13.6041L16.4375 10.1457Z"/>
</symbol>

</defs>
</svg>
